<svg width="1915" height="1024" viewBox="0 0 1915 1024" fill="none" xmlns="http://www.w3.org/2000/svg">
<g clip-path="url(#clip0)">
<path d="M96.744 212.64H210.168L294.124 663H202.384L187.372 567.924H121.208L105.64 663H11.676L96.744 212.64ZM177.92 508.432L154.012 332.736L130.104 508.432H177.92ZM339.594 212.64H409.65L501.946 429.48V212.64H584.234V663H516.958L424.662 429.48V663H339.594V212.64ZM691.846 286.588H624.014V212.64H859.202V286.588H791.926V663H691.846V286.588ZM1023.5 669.672C974.943 669.672 940.286 657.255 919.528 632.42C898.771 607.215 888.392 570.148 888.392 521.22V353.864C888.392 304.936 898.771 268.24 919.528 243.776C940.286 218.941 974.943 206.524 1023.5 206.524C1072.43 206.524 1107.27 218.941 1128.03 243.776C1149.16 268.611 1159.72 305.307 1159.72 353.864V521.22C1159.72 570.148 1149.16 607.215 1128.03 632.42C1107.27 657.255 1072.43 669.672 1023.5 669.672ZM1023.5 599.06C1037.59 599.06 1046.85 594.427 1051.3 585.16C1055.75 575.523 1057.97 562.549 1057.97 546.24V329.4C1057.97 312.72 1055.75 299.747 1051.3 290.48C1046.85 281.213 1037.59 276.58 1023.5 276.58C1010.16 276.58 1001.26 281.399 996.812 291.036C992.364 300.303 990.14 313.091 990.14 329.4V546.24C990.14 562.549 992.179 575.523 996.256 585.16C1000.33 594.427 1009.42 599.06 1023.5 599.06ZM1220.29 212.64H1290.35L1382.64 429.48V212.64H1464.93V663H1397.65L1305.36 429.48V663H1220.29V212.64ZM1570.24 428.368H1844.35V490.084H1570.24V428.368ZM33.36 789.64H227.96V856.916H132.884V970.34H215.728V1039.84H132.884V1240H33.36V789.64ZM274.438 789.64H398.426C447.725 789.64 484.977 798.351 510.182 815.772C535.387 833.193 547.99 864.144 547.99 908.624C547.99 938.648 544.098 962.556 536.314 980.348C528.53 998.14 514.074 1012.04 492.946 1022.05L554.662 1240H451.802L402.318 1038.17H373.962V1240H274.438V789.64ZM401.762 980.904C421.778 980.904 435.678 975.715 443.462 965.336C451.617 954.587 455.694 938.648 455.694 917.52C455.694 897.133 451.987 881.936 444.574 871.928C437.161 861.549 424.373 856.36 406.21 856.36H373.962V980.904H401.762ZM607.821 789.64H810.205V857.472H707.345V969.228H785.741V1038.17H707.345V1172.72H811.317V1240H607.821V789.64ZM976.041 1246.67C933.043 1246.67 900.981 1235.37 879.853 1212.76C859.095 1189.77 847.975 1153.45 846.493 1103.78L931.561 1090.99C931.931 1119.53 935.267 1140.11 941.569 1152.71C948.241 1164.94 958.063 1171.06 971.037 1171.06C987.717 1171.06 996.057 1160.12 996.057 1138.25C996.057 1120.83 991.979 1105.82 983.825 1093.22C976.041 1080.61 963.623 1067.08 946.573 1052.63L907.653 1018.71C888.378 1002.4 873.366 985.167 862.617 967.004C852.238 948.471 847.049 926.601 847.049 901.396C847.049 863.588 858.169 834.491 880.409 814.104C903.019 793.717 933.97 783.524 973.261 783.524C1015.89 783.524 1044.8 795.941 1060 820.776C1075.56 845.611 1083.9 875.82 1085.02 911.404L999.393 921.968C998.651 898.616 996.427 881.936 992.721 871.928C989.385 861.549 981.786 856.36 969.925 856.36C961.399 856.36 954.727 860.067 949.909 867.48C945.461 874.523 943.237 882.492 943.237 891.388C943.237 906.585 946.573 919.373 953.245 929.752C960.287 940.131 971.407 951.992 986.605 965.336L1023.86 998.14C1046.1 1017.04 1063.33 1037.06 1075.56 1058.19C1087.8 1079.32 1093.91 1104.34 1093.91 1133.25C1093.91 1154.38 1088.91 1173.65 1078.9 1191.07C1069.26 1208.12 1055.55 1221.65 1037.76 1231.66C1019.96 1241.67 999.393 1246.67 976.041 1246.67ZM1143.77 789.64H1243.29V972.008H1312.79V789.64H1412.87V1240H1312.79V1043.18H1243.29V1240H1143.77V789.64ZM1481.46 789.64H1683.84V857.472H1580.98V969.228H1659.38V1038.17H1580.98V1172.72H1684.95V1240H1481.46V789.64ZM1730.14 789.64H1854.13C1903.42 789.64 1940.68 798.351 1965.88 815.772C1991.09 833.193 2003.69 864.144 2003.69 908.624C2003.69 938.648 1999.8 962.556 1992.01 980.348C1984.23 998.14 1969.77 1012.04 1948.65 1022.05L2010.36 1240H1907.5L1858.02 1038.17H1829.66V1240H1730.14V789.64ZM1857.46 980.904C1877.48 980.904 1891.38 975.715 1899.16 965.336C1907.32 954.587 1911.39 938.648 1911.39 917.52C1911.39 897.133 1907.69 881.936 1900.27 871.928C1892.86 861.549 1880.07 856.36 1861.91 856.36H1829.66V980.904H1857.46Z" transform="translate(-40 -215)"
    fill="#F8F8F8"/>
</g>
<defs>
<clipPath id="clip0">
<rect width="1915" height="1024" fill="white"/>
</clipPath>
</defs>
</svg>
