<svg width="2000" height="1150" viewBox="0 0 2000 1150" fill="none" xmlns="http://www.w3.org/2000/svg">
<rect width="2000" height="1150" fill="white"/>
<rect width="2000" height="1150" fill="#F5E0B7"/>
<path d="M1275 1125C1275 1097.39 1297.39 1075 1325 1075H1756C1783.61 1075 1806 1097.39 1806 1125V1150H1275V1125Z" fill="#EDBF85"/>
<rect x="871" y="570" width="326" height="121" fill="#43AA8B"/>
<rect x="1469" y="570" width="331" height="121" fill="#474448"/>
<path d="M626.305 501.3H633.805C635.071 499.9 636.205 498.2 637.205 496.2C638.271 494.2 639.171 491.767 639.905 488.9C640.638 485.967 641.205 482.533 641.605 478.6C642.071 474.667 642.305 470.1 642.305 464.9V443.2H690.005V501.3H700.805V528H688.405V513H638.705V528H626.305V501.3ZM676.805 501.3V454.9H655.105V466.6C655.105 471.4 654.938 475.633 654.605 479.3C654.338 482.9 653.938 486.067 653.405 488.8C652.871 491.533 652.205 493.9 651.405 495.9C650.671 497.833 649.805 499.5 648.805 500.9V501.3H676.805ZM749.413 513C746.613 513 744.38 512.2 742.713 510.6C741.113 508.933 740.113 506.733 739.713 504H739.113C738.247 507.4 736.48 509.967 733.813 511.7C731.147 513.367 727.847 514.2 723.913 514.2C718.58 514.2 714.48 512.8 711.613 510C708.747 507.2 707.313 503.467 707.313 498.8C707.313 493.4 709.247 489.4 713.113 486.8C716.98 484.133 722.48 482.8 729.613 482.8H738.513V479C738.513 476.067 737.747 473.8 736.213 472.2C734.68 470.6 732.213 469.8 728.813 469.8C725.813 469.8 723.38 470.467 721.513 471.8C719.713 473.067 718.18 474.6 716.913 476.4L709.313 469.6C711.247 466.6 713.813 464.2 717.013 462.4C720.213 460.533 724.447 459.6 729.713 459.6C736.78 459.6 742.147 461.2 745.813 464.4C749.48 467.6 751.313 472.2 751.313 478.2V502.8H756.513V513H749.413ZM728.213 504.9C731.08 504.9 733.513 504.267 735.513 503C737.513 501.733 738.513 499.867 738.513 497.4V490.5H730.313C723.647 490.5 720.313 492.633 720.313 496.9V498.6C720.313 500.733 720.98 502.333 722.313 503.4C723.713 504.4 725.68 504.9 728.213 504.9ZM766.873 460.8H795.573C800.239 460.8 803.806 462 806.273 464.4C808.739 466.733 809.973 469.9 809.973 473.9C809.973 480.5 806.373 484.3 799.173 485.3V485.7C803.439 486.1 806.639 487.333 808.773 489.4C810.906 491.467 811.973 494.233 811.973 497.7C811.973 502.233 810.573 505.933 807.773 508.8C804.973 511.6 801.073 513 796.073 513H766.873V460.8ZM793.473 503.7C795.206 503.7 796.539 503.267 797.473 502.4C798.406 501.467 798.873 500.167 798.873 498.5V495.7C798.873 494.033 798.406 492.767 797.473 491.9C796.539 490.967 795.206 490.5 793.473 490.5H779.373V503.7H793.473ZM791.973 482.4C793.506 482.4 794.706 481.967 795.573 481.1C796.506 480.233 796.973 479.033 796.973 477.5V475C796.973 473.467 796.506 472.267 795.573 471.4C794.706 470.533 793.506 470.1 791.973 470.1H779.373V482.4H791.973ZM862.304 513C859.504 513 857.271 512.2 855.604 510.6C854.004 508.933 853.004 506.733 852.604 504H852.004C851.137 507.4 849.371 509.967 846.704 511.7C844.037 513.367 840.737 514.2 836.804 514.2C831.471 514.2 827.371 512.8 824.504 510C821.637 507.2 820.204 503.467 820.204 498.8C820.204 493.4 822.137 489.4 826.004 486.8C829.871 484.133 835.371 482.8 842.504 482.8H851.404V479C851.404 476.067 850.637 473.8 849.104 472.2C847.571 470.6 845.104 469.8 841.704 469.8C838.704 469.8 836.271 470.467 834.404 471.8C832.604 473.067 831.071 474.6 829.804 476.4L822.204 469.6C824.137 466.6 826.704 464.2 829.904 462.4C833.104 460.533 837.337 459.6 842.604 459.6C849.671 459.6 855.037 461.2 858.704 464.4C862.371 467.6 864.204 472.2 864.204 478.2V502.8H869.404V513H862.304ZM841.104 504.9C843.971 504.9 846.404 504.267 848.404 503C850.404 501.733 851.404 499.867 851.404 497.4V490.5H843.204C836.537 490.5 833.204 492.633 833.204 496.9V498.6C833.204 500.733 833.871 502.333 835.204 503.4C836.604 504.4 838.571 504.9 841.104 504.9ZM879.763 460.8H892.263V484.1L891.163 496.3H891.563L897.663 485.2L913.963 460.8H925.463V513H912.963V489.7L914.063 477.4H913.663L907.563 488.6L891.263 513H879.763V460.8ZM902.663 454.6C898.463 454.6 895.097 453.733 892.563 452C890.03 450.2 888.03 447.667 886.563 444.4L884.463 439.7L894.663 435.7L897.963 445.3C898.497 445.5 899.197 445.667 900.063 445.8C900.93 445.867 901.797 445.9 902.663 445.9C903.53 445.9 904.397 445.867 905.263 445.8C906.13 445.667 906.83 445.5 907.363 445.3L910.663 435.7L920.863 439.7L918.763 444.4C917.297 447.667 915.297 450.2 912.763 452C910.23 453.733 906.863 454.6 902.663 454.6ZM950.81 471H934.91V460.8H979.51V471H963.61V513H950.81V471ZM1009.36 514.2C1005.49 514.2 1002.03 513.567 998.959 512.3C995.959 510.967 993.393 509.133 991.259 506.8C989.193 504.4 987.593 501.533 986.459 498.2C985.326 494.8 984.759 491 984.759 486.8C984.759 482.667 985.293 478.933 986.359 475.6C987.493 472.267 989.093 469.433 991.159 467.1C993.226 464.7 995.759 462.867 998.759 461.6C1001.76 460.267 1005.16 459.6 1008.96 459.6C1013.03 459.6 1016.56 460.3 1019.56 461.7C1022.56 463.1 1025.03 465 1026.96 467.4C1028.89 469.8 1030.33 472.6 1031.26 475.8C1032.26 478.933 1032.76 482.3 1032.76 485.9V490.1H998.059V491.4C998.059 495.2 999.126 498.267 1001.26 500.6C1003.39 502.867 1006.56 504 1010.76 504C1013.96 504 1016.56 503.333 1018.56 502C1020.63 500.667 1022.46 498.967 1024.06 496.9L1030.96 504.6C1028.83 507.6 1025.89 509.967 1022.16 511.7C1018.49 513.367 1014.23 514.2 1009.36 514.2ZM1009.16 469.2C1005.76 469.2 1003.06 470.333 1001.06 472.6C999.059 474.867 998.059 477.8 998.059 481.4V482.2H1019.46V481.3C1019.46 477.7 1018.56 474.8 1016.76 472.6C1015.03 470.333 1012.49 469.2 1009.16 469.2ZM1088.25 514.2C1084.39 514.2 1080.95 513.567 1077.95 512.3C1074.95 511.033 1072.42 509.2 1070.35 506.8C1068.35 504.4 1066.82 501.533 1065.75 498.2C1064.69 494.8 1064.15 491 1064.15 486.8C1064.15 482.6 1064.69 478.833 1065.75 475.5C1066.82 472.167 1068.35 469.333 1070.35 467C1072.42 464.6 1074.95 462.767 1077.95 461.5C1080.95 460.233 1084.39 459.6 1088.25 459.6C1093.52 459.6 1097.85 460.767 1101.25 463.1C1104.72 465.433 1107.22 468.667 1108.75 472.8L1098.25 477.5C1097.65 475.3 1096.52 473.5 1094.85 472.1C1093.25 470.633 1091.05 469.9 1088.25 469.9C1084.65 469.9 1081.95 471.033 1080.15 473.3C1078.42 475.567 1077.55 478.533 1077.55 482.2V491.7C1077.55 495.367 1078.42 498.333 1080.15 500.6C1081.95 502.8 1084.65 503.9 1088.25 503.9C1091.32 503.9 1093.69 503.133 1095.35 501.6C1097.02 500 1098.32 498.033 1099.25 495.7L1109.05 500.4C1107.32 505 1104.69 508.467 1101.15 510.8C1097.62 513.067 1093.32 514.2 1088.25 514.2ZM1130.11 471H1114.21V460.8H1158.81V471H1142.91V513H1130.11V471ZM1168.24 460.8H1181.04V469.4H1181.44C1182.37 466.4 1184.14 464.033 1186.74 462.3C1189.34 460.5 1192.37 459.6 1195.84 459.6C1202.51 459.6 1207.57 461.967 1211.04 466.7C1214.57 471.367 1216.34 478.067 1216.34 486.8C1216.34 495.6 1214.57 502.367 1211.04 507.1C1207.57 511.833 1202.51 514.2 1195.84 514.2C1192.37 514.2 1189.34 513.3 1186.74 511.5C1184.21 509.7 1182.44 507.3 1181.44 504.3H1181.04V533H1168.24V460.8ZM1191.74 503.6C1195.07 503.6 1197.77 502.5 1199.84 500.3C1201.91 498.1 1202.94 495.133 1202.94 491.4V482.4C1202.94 478.667 1201.91 475.7 1199.84 473.5C1197.77 471.233 1195.07 470.1 1191.74 470.1C1188.67 470.1 1186.11 470.867 1184.04 472.4C1182.04 473.933 1181.04 475.967 1181.04 478.5V495.1C1181.04 497.833 1182.04 499.933 1184.04 501.4C1186.11 502.867 1188.67 503.6 1191.74 503.6ZM1248.9 514.2C1245.17 514.2 1241.8 513.567 1238.8 512.3C1235.87 511.033 1233.33 509.2 1231.2 506.8C1229.13 504.4 1227.53 501.533 1226.4 498.2C1225.27 494.8 1224.7 491 1224.7 486.8C1224.7 482.6 1225.27 478.833 1226.4 475.5C1227.53 472.167 1229.13 469.333 1231.2 467C1233.33 464.6 1235.87 462.767 1238.8 461.5C1241.8 460.233 1245.17 459.6 1248.9 459.6C1252.63 459.6 1256 460.233 1259 461.5C1262 462.767 1264.53 464.6 1266.6 467C1268.73 469.333 1270.37 472.167 1271.5 475.5C1272.63 478.833 1273.2 482.6 1273.2 486.8C1273.2 491 1272.63 494.8 1271.5 498.2C1270.37 501.533 1268.73 504.4 1266.6 506.8C1264.53 509.2 1262 511.033 1259 512.3C1256 513.567 1252.63 514.2 1248.9 514.2ZM1248.9 503.9C1252.3 503.9 1254.97 502.867 1256.9 500.8C1258.83 498.733 1259.8 495.7 1259.8 491.7V482C1259.8 478.067 1258.83 475.067 1256.9 473C1254.97 470.933 1252.3 469.9 1248.9 469.9C1245.57 469.9 1242.93 470.933 1241 473C1239.07 475.067 1238.1 478.067 1238.1 482V491.7C1238.1 495.7 1239.07 498.733 1241 500.8C1242.93 502.867 1245.57 503.9 1248.9 503.9ZM1284.55 460.8H1297.05V484.1L1295.95 496.3H1296.35L1302.45 485.2L1318.75 460.8H1330.25V513H1317.75V489.7L1318.85 477.4H1318.45L1312.35 488.6L1296.05 513H1284.55V460.8ZM1355.6 471H1339.7V460.8H1384.3V471H1368.4V513H1355.6V471ZM1393.73 460.8H1406.53V477.3H1420.53C1423.13 477.3 1425.49 477.7 1427.63 478.5C1429.83 479.3 1431.69 480.467 1433.23 482C1434.83 483.467 1436.06 485.3 1436.93 487.5C1437.86 489.7 1438.33 492.233 1438.33 495.1C1438.33 497.967 1437.86 500.533 1436.93 502.8C1436.06 505 1434.83 506.867 1433.23 508.4C1431.69 509.867 1429.83 511 1427.63 511.8C1425.49 512.6 1423.16 513 1420.63 513H1393.73V460.8ZM1418.03 503.5C1420.29 503.5 1422.06 502.967 1423.33 501.9C1424.66 500.833 1425.33 499.233 1425.33 497.1V493.2C1425.33 491.067 1424.66 489.467 1423.33 488.4C1422.06 487.333 1420.29 486.8 1418.03 486.8H1406.53V503.5H1418.03ZM1472.24 460.8H1506.84V471H1485.04V513H1472.24V460.8ZM1536.01 514.2C1532.28 514.2 1528.91 513.567 1525.91 512.3C1522.98 511.033 1520.44 509.2 1518.31 506.8C1516.24 504.4 1514.64 501.533 1513.51 498.2C1512.38 494.8 1511.81 491 1511.81 486.8C1511.81 482.6 1512.38 478.833 1513.51 475.5C1514.64 472.167 1516.24 469.333 1518.31 467C1520.44 464.6 1522.98 462.767 1525.91 461.5C1528.91 460.233 1532.28 459.6 1536.01 459.6C1539.74 459.6 1543.11 460.233 1546.11 461.5C1549.11 462.767 1551.64 464.6 1553.71 467C1555.84 469.333 1557.48 472.167 1558.61 475.5C1559.74 478.833 1560.31 482.6 1560.31 486.8C1560.31 491 1559.74 494.8 1558.61 498.2C1557.48 501.533 1555.84 504.4 1553.71 506.8C1551.64 509.2 1549.11 511.033 1546.11 512.3C1543.11 513.567 1539.74 514.2 1536.01 514.2ZM1536.01 503.9C1539.41 503.9 1542.08 502.867 1544.01 500.8C1545.94 498.733 1546.91 495.7 1546.91 491.7V482C1546.91 478.067 1545.94 475.067 1544.01 473C1542.08 470.933 1539.41 469.9 1536.01 469.9C1532.68 469.9 1530.04 470.933 1528.11 473C1526.18 475.067 1525.21 478.067 1525.21 482V491.7C1525.21 495.7 1526.18 498.733 1528.11 500.8C1530.04 502.867 1532.68 503.9 1536.01 503.9ZM1571.66 460.8H1584.46V469.4H1584.86C1585.79 466.4 1587.56 464.033 1590.16 462.3C1592.76 460.5 1595.79 459.6 1599.26 459.6C1605.92 459.6 1610.99 461.967 1614.46 466.7C1617.99 471.367 1619.76 478.067 1619.76 486.8C1619.76 495.6 1617.99 502.367 1614.46 507.1C1610.99 511.833 1605.92 514.2 1599.26 514.2C1595.79 514.2 1592.76 513.3 1590.16 511.5C1587.62 509.7 1585.86 507.3 1584.86 504.3H1584.46V533H1571.66V460.8ZM1595.16 503.6C1598.49 503.6 1601.19 502.5 1603.26 500.3C1605.32 498.1 1606.36 495.133 1606.36 491.4V482.4C1606.36 478.667 1605.32 475.7 1603.26 473.5C1601.19 471.233 1598.49 470.1 1595.16 470.1C1592.09 470.1 1589.52 470.867 1587.46 472.4C1585.46 473.933 1584.46 475.967 1584.46 478.5V495.1C1584.46 497.833 1585.46 499.933 1587.46 501.4C1589.52 502.867 1592.09 503.6 1595.16 503.6ZM1652.32 514.2C1648.59 514.2 1645.22 513.567 1642.22 512.3C1639.29 511.033 1636.75 509.2 1634.62 506.8C1632.55 504.4 1630.95 501.533 1629.82 498.2C1628.69 494.8 1628.12 491 1628.12 486.8C1628.12 482.6 1628.69 478.833 1629.82 475.5C1630.95 472.167 1632.55 469.333 1634.62 467C1636.75 464.6 1639.29 462.767 1642.22 461.5C1645.22 460.233 1648.59 459.6 1652.32 459.6C1656.05 459.6 1659.42 460.233 1662.42 461.5C1665.42 462.767 1667.95 464.6 1670.02 467C1672.15 469.333 1673.79 472.167 1674.92 475.5C1676.05 478.833 1676.62 482.6 1676.62 486.8C1676.62 491 1676.05 494.8 1674.92 498.2C1673.79 501.533 1672.15 504.4 1670.02 506.8C1667.95 509.2 1665.42 511.033 1662.42 512.3C1659.42 513.567 1656.05 514.2 1652.32 514.2ZM1652.32 503.9C1655.72 503.9 1658.39 502.867 1660.32 500.8C1662.25 498.733 1663.22 495.7 1663.22 491.7V482C1663.22 478.067 1662.25 475.067 1660.32 473C1658.39 470.933 1655.72 469.9 1652.32 469.9C1648.99 469.9 1646.35 470.933 1644.42 473C1642.49 475.067 1641.52 478.067 1641.52 482V491.7C1641.52 495.7 1642.49 498.733 1644.42 500.8C1646.35 502.867 1648.99 503.9 1652.32 503.9ZM1681.08 502.8H1687.68C1689.61 500 1691.04 496.467 1691.98 492.2C1692.91 487.933 1693.38 482.433 1693.38 475.7V460.8H1733.48V502.8H1742.38V527H1730.78V513H1692.68V527H1681.08V502.8ZM1720.68 502.8V471H1705.58V476.3C1705.58 483.433 1705.14 489.1 1704.28 493.3C1703.41 497.433 1702.34 500.6 1701.08 502.8H1720.68ZM1789.94 513C1787.14 513 1784.91 512.2 1783.24 510.6C1781.64 508.933 1780.64 506.733 1780.24 504H1779.64C1778.77 507.4 1777.01 509.967 1774.34 511.7C1771.67 513.367 1768.37 514.2 1764.44 514.2C1759.11 514.2 1755.01 512.8 1752.14 510C1749.27 507.2 1747.84 503.467 1747.84 498.8C1747.84 493.4 1749.77 489.4 1753.64 486.8C1757.51 484.133 1763.01 482.8 1770.14 482.8H1779.04V479C1779.04 476.067 1778.27 473.8 1776.74 472.2C1775.21 470.6 1772.74 469.8 1769.34 469.8C1766.34 469.8 1763.91 470.467 1762.04 471.8C1760.24 473.067 1758.71 474.6 1757.44 476.4L1749.84 469.6C1751.77 466.6 1754.34 464.2 1757.54 462.4C1760.74 460.533 1764.97 459.6 1770.24 459.6C1777.31 459.6 1782.67 461.2 1786.34 464.4C1790.01 467.6 1791.84 472.2 1791.84 478.2V502.8H1797.04V513H1789.94ZM1768.74 504.9C1771.61 504.9 1774.04 504.267 1776.04 503C1778.04 501.733 1779.04 499.867 1779.04 497.4V490.5H1770.84C1764.17 490.5 1760.84 492.633 1760.84 496.9V498.6C1760.84 500.733 1761.51 502.333 1762.84 503.4C1764.24 504.4 1766.21 504.9 1768.74 504.9ZM670.627 646.8H677.227C679.16 644 680.593 640.467 681.527 636.2C682.46 631.933 682.927 626.433 682.927 619.7V604.8H723.027V646.8H731.927V671H720.327V657H682.227V671H670.627V646.8ZM710.227 646.8V615H695.127V620.3C695.127 627.433 694.693 633.1 693.827 637.3C692.96 641.433 691.893 644.6 690.627 646.8H710.227ZM735.968 646.8H742.768C743.435 645.8 744.035 644.6 744.568 643.2C745.168 641.8 745.668 640.1 746.068 638.1C746.468 636.033 746.768 633.6 746.968 630.8C747.235 627.933 747.368 624.6 747.368 620.8V604.8H787.068V657H774.268V615H759.568V621.4C759.568 626.133 759.401 630.267 759.068 633.8C758.735 637.267 758.235 640.267 757.568 642.8C756.968 645.333 756.201 647.467 755.268 649.2C754.401 650.867 753.435 652.233 752.368 653.3C750.835 654.833 749.101 655.9 747.168 656.5C745.235 657.1 742.868 657.4 740.068 657.4H735.968V646.8ZM798.536 646.8H804.136L806.836 641.3C808.103 638.633 810.003 637.133 812.536 636.8V636.3C808.536 635.833 805.336 634.4 802.936 632C800.603 629.6 799.436 626.2 799.436 621.8C799.436 619.133 799.869 616.767 800.736 614.7C801.669 612.567 802.903 610.767 804.436 609.3C806.036 607.833 807.903 606.733 810.036 606C812.236 605.2 814.603 604.8 817.136 604.8H844.036V657H831.236V638.3H821.536L816.036 649.6C814.703 652.4 813.169 654.333 811.436 655.4C809.769 656.467 807.669 657 805.136 657H798.536V646.8ZM831.236 628.8V614.3H819.736C817.469 614.3 815.669 614.833 814.336 615.9C813.069 616.967 812.436 618.567 812.436 620.7V622.8C812.436 624.733 813.069 626.233 814.336 627.3C815.669 628.3 817.469 628.8 819.736 628.8H831.236ZM1210.61 641.6C1213.34 641.6 1215.34 642.3 1216.61 643.7C1217.94 645.1 1218.61 646.867 1218.61 649V650.8C1218.61 652.6 1218.34 654.467 1217.81 656.4C1217.34 658.333 1216.64 660.2 1215.71 662C1214.84 663.8 1213.77 665.5 1212.51 667.1C1211.31 668.7 1209.94 670.1 1208.41 671.3H1199.31C1201.57 669.1 1203.47 666.933 1205.01 664.8C1206.54 662.733 1207.71 660.433 1208.51 657.9C1206.44 657.567 1204.94 656.767 1204.01 655.5C1203.07 654.167 1202.61 652.6 1202.61 650.8V649C1202.61 646.867 1203.24 645.1 1204.51 643.7C1205.77 642.3 1207.81 641.6 1210.61 641.6ZM1294.82 657C1292.02 657 1289.79 656.2 1288.12 654.6C1286.52 652.933 1285.52 650.733 1285.12 648H1284.52C1283.66 651.4 1281.89 653.967 1279.22 655.7C1276.56 657.367 1273.26 658.2 1269.32 658.2C1263.99 658.2 1259.89 656.8 1257.02 654C1254.16 651.2 1252.72 647.467 1252.72 642.8C1252.72 637.4 1254.66 633.4 1258.52 630.8C1262.39 628.133 1267.89 626.8 1275.02 626.8H1283.92V623C1283.92 620.067 1283.16 617.8 1281.62 616.2C1280.09 614.6 1277.62 613.8 1274.22 613.8C1271.22 613.8 1268.79 614.467 1266.92 615.8C1265.12 617.067 1263.59 618.6 1262.32 620.4L1254.72 613.6C1256.66 610.6 1259.22 608.2 1262.42 606.4C1265.62 604.533 1269.86 603.6 1275.12 603.6C1282.19 603.6 1287.56 605.2 1291.22 608.4C1294.89 611.6 1296.72 616.2 1296.72 622.2V646.8H1301.92V657H1294.82ZM1273.62 648.9C1276.49 648.9 1278.92 648.267 1280.92 647C1282.92 645.733 1283.92 643.867 1283.92 641.4V634.5H1275.72C1269.06 634.5 1265.72 636.633 1265.72 640.9V642.6C1265.72 644.733 1266.39 646.333 1267.72 647.4C1269.12 648.4 1271.09 648.9 1273.62 648.9ZM1335.92 604.8H1348.72V625.3H1368.82V604.8H1381.62V657H1368.82V635.5H1348.72V657H1335.92V604.8ZM1417.56 658.2C1413.7 658.2 1410.23 657.567 1407.16 656.3C1404.16 654.967 1401.6 653.133 1399.46 650.8C1397.4 648.4 1395.8 645.533 1394.66 642.2C1393.53 638.8 1392.96 635 1392.96 630.8C1392.96 626.667 1393.5 622.933 1394.56 619.6C1395.7 616.267 1397.3 613.433 1399.36 611.1C1401.43 608.7 1403.96 606.867 1406.96 605.6C1409.96 604.267 1413.36 603.6 1417.16 603.6C1421.23 603.6 1424.76 604.3 1427.76 605.7C1430.76 607.1 1433.23 609 1435.16 611.4C1437.1 613.8 1438.53 616.6 1439.46 619.8C1440.46 622.933 1440.96 626.3 1440.96 629.9V634.1H1406.26V635.4C1406.26 639.2 1407.33 642.267 1409.46 644.6C1411.6 646.867 1414.76 648 1418.96 648C1422.16 648 1424.76 647.333 1426.76 646C1428.83 644.667 1430.66 642.967 1432.26 640.9L1439.16 648.6C1437.03 651.6 1434.1 653.967 1430.36 655.7C1426.7 657.367 1422.43 658.2 1417.56 658.2ZM1417.36 613.2C1413.96 613.2 1411.26 614.333 1409.26 616.6C1407.26 618.867 1406.26 621.8 1406.26 625.4V626.2H1427.66V625.3C1427.66 621.7 1426.76 618.8 1424.96 616.6C1423.23 614.333 1420.7 613.2 1417.36 613.2Z" fill="black"/>
<path d="M876.3 646.8H883.1C883.767 645.8 884.367 644.6 884.9 643.2C885.5 641.8 886 640.1 886.4 638.1C886.8 636.033 887.1 633.6 887.3 630.8C887.567 627.933 887.7 624.6 887.7 620.8V604.8H927.4V657H914.6V615H899.9V621.4C899.9 626.133 899.733 630.267 899.4 633.8C899.067 637.267 898.567 640.267 897.9 642.8C897.3 645.333 896.533 647.467 895.6 649.2C894.733 650.867 893.767 652.233 892.7 653.3C891.167 654.833 889.433 655.9 887.5 656.5C885.567 657.1 883.2 657.4 880.4 657.4H876.3V646.8ZM988.068 658.2C981.268 658.2 975.835 656.2 971.768 652.2C967.768 648.2 965.401 642.633 964.668 635.5H954.868V657H942.068V604.8H954.868V625.3H964.768C965.635 618.433 968.068 613.1 972.068 609.3C976.068 605.5 981.401 603.6 988.068 603.6C995.535 603.6 1001.33 606.033 1005.47 610.9C1009.67 615.7 1011.77 622.333 1011.77 630.8C1011.77 635.067 1011.23 638.9 1010.17 642.3C1009.1 645.633 1007.53 648.5 1005.47 650.9C1003.47 653.233 1001 655.033 998.068 656.3C995.135 657.567 991.801 658.2 988.068 658.2ZM988.068 647.9C991.401 647.9 993.935 646.9 995.668 644.9C997.468 642.833 998.368 639.8 998.368 635.8V626C998.368 622 997.468 619 995.668 617C993.935 614.933 991.401 613.9 988.068 613.9C984.735 613.9 982.168 614.933 980.368 617C978.635 619 977.768 622 977.768 626V635.8C977.768 639.8 978.635 642.833 980.368 644.9C982.168 646.9 984.735 647.9 988.068 647.9ZM1016.13 646.8H1022.73C1024.67 644 1026.1 640.467 1027.03 636.2C1027.97 631.933 1028.43 626.433 1028.43 619.7V604.8H1068.53V646.8H1077.43V671H1065.83V657H1027.73V671H1016.13V646.8ZM1055.73 646.8V615H1040.63V620.3C1040.63 627.433 1040.2 633.1 1039.33 637.3C1038.47 641.433 1037.4 644.6 1036.13 646.8H1055.73ZM1107.7 658.2C1103.83 658.2 1100.37 657.567 1097.3 656.3C1094.3 654.967 1091.73 653.133 1089.6 650.8C1087.53 648.4 1085.93 645.533 1084.8 642.2C1083.67 638.8 1083.1 635 1083.1 630.8C1083.1 626.667 1083.63 622.933 1084.7 619.6C1085.83 616.267 1087.43 613.433 1089.5 611.1C1091.57 608.7 1094.1 606.867 1097.1 605.6C1100.1 604.267 1103.5 603.6 1107.3 603.6C1111.37 603.6 1114.9 604.3 1117.9 605.7C1120.9 607.1 1123.37 609 1125.3 611.4C1127.23 613.8 1128.67 616.6 1129.6 619.8C1130.6 622.933 1131.1 626.3 1131.1 629.9V634.1H1096.4V635.4C1096.4 639.2 1097.47 642.267 1099.6 644.6C1101.73 646.867 1104.9 648 1109.1 648C1112.3 648 1114.9 647.333 1116.9 646C1118.97 644.667 1120.8 642.967 1122.4 640.9L1129.3 648.6C1127.17 651.6 1124.23 653.967 1120.5 655.7C1116.83 657.367 1112.57 658.2 1107.7 658.2ZM1107.5 613.2C1104.1 613.2 1101.4 614.333 1099.4 616.6C1097.4 618.867 1096.4 621.8 1096.4 625.4V626.2H1117.8V625.3C1117.8 621.7 1116.9 618.8 1115.1 616.6C1113.37 614.333 1110.83 613.2 1107.5 613.2ZM1142.36 604.8H1154.86V628.1L1153.76 640.3H1154.16L1160.26 629.2L1176.56 604.8H1188.06V657H1175.56V633.7L1176.66 621.4H1176.26L1170.16 632.6L1153.86 657H1142.36V604.8ZM1165.26 598.6C1161.06 598.6 1157.69 597.733 1155.16 596C1152.63 594.2 1150.63 591.667 1149.16 588.4L1147.06 583.7L1157.26 579.7L1160.56 589.3C1161.09 589.5 1161.79 589.667 1162.66 589.8C1163.53 589.867 1164.39 589.9 1165.26 589.9C1166.13 589.9 1166.99 589.867 1167.86 589.8C1168.73 589.667 1169.43 589.5 1169.96 589.3L1173.26 579.7L1183.46 583.7L1181.36 588.4C1179.89 591.667 1177.89 594.2 1175.36 596C1172.83 597.733 1169.46 598.6 1165.26 598.6ZM1475.86 604.8H1490.56L1504.36 627.8H1504.76L1518.36 604.8H1532.66V657H1520.26V620.6H1519.86L1516.26 627.4L1504.26 647.2L1492.26 627.4L1488.66 620.6H1488.26V657H1475.86V604.8ZM1585.84 657C1583.04 657 1580.81 656.2 1579.14 654.6C1577.54 652.933 1576.54 650.733 1576.14 648H1575.54C1574.67 651.4 1572.91 653.967 1570.24 655.7C1567.57 657.367 1564.27 658.2 1560.34 658.2C1555.01 658.2 1550.91 656.8 1548.04 654C1545.17 651.2 1543.74 647.467 1543.74 642.8C1543.74 637.4 1545.67 633.4 1549.54 630.8C1553.41 628.133 1558.91 626.8 1566.04 626.8H1574.94V623C1574.94 620.067 1574.17 617.8 1572.64 616.2C1571.11 614.6 1568.64 613.8 1565.24 613.8C1562.24 613.8 1559.81 614.467 1557.94 615.8C1556.14 617.067 1554.61 618.6 1553.34 620.4L1545.74 613.6C1547.67 610.6 1550.24 608.2 1553.44 606.4C1556.64 604.533 1560.87 603.6 1566.14 603.6C1573.21 603.6 1578.57 605.2 1582.24 608.4C1585.91 611.6 1587.74 616.2 1587.74 622.2V646.8H1592.94V657H1585.84ZM1564.64 648.9C1567.51 648.9 1569.94 648.267 1571.94 647C1573.94 645.733 1574.94 643.867 1574.94 641.4V634.5H1566.74C1560.07 634.5 1556.74 636.633 1556.74 640.9V642.6C1556.74 644.733 1557.41 646.333 1558.74 647.4C1560.14 648.4 1562.11 648.9 1564.64 648.9ZM1603.3 604.8H1616.1V646.8H1631V604.8H1643.8V646.8H1658.7V604.8H1671.5V657H1603.3V604.8ZM1686.31 604.8H1698.81V628.1L1697.71 640.3H1698.11L1704.21 629.2L1720.51 604.8H1732.01V657H1719.51V633.7L1720.61 621.4H1720.21L1714.11 632.6L1697.81 657H1686.31V604.8ZM1746.85 604.8H1759.65V625.3H1779.75V604.8H1792.55V657H1779.75V635.5H1759.65V657H1746.85V604.8Z" fill="white"/>
</svg>
